# xmcd
#
# Track frame offsets:
#	150
#	11017
#	29977
#	42923
#	59489
#	73573
#	85502
#	95969
#	116459
#	130215
#	142190
#	155471
#	167671
#
# Disc length: 2418 seconds
# Revision: 0
# Processed by: cddbd v1.5.2PL0 Copyright (c) Steve Scherf et al.
# Submitted via: dBpowerAMP V12.0
#
DISCID=b909700d
DTITLE=Stillhouse Road - Morning Glory
DYEAR=2015
DGENRE=Bluegrass
TTITLE0=That Won't Pay the Rent
TTITLE1=Granddaddy
TTITLE2=Please Tell Me Why
TTITLE3=Hickory Wind
TTITLE4=Under the Influence
TTITLE5=You Win Again
TTITLE6=Lonesome Highway Blues
TTITLE7=Wayfaring Stanger
TTITLE8=How Did I Get So Lucky
TTITLE9=Teardrops Fell Like Raindrops
TTITLE10=First Time We Danced
TTITLE11=Them Blues
TTITLE12=Chickens and Pigs
EXTD=
EXTT0=
EXTT1=
EXTT2=
EXTT3=
EXTT4=
EXTT5=
EXTT6=
EXTT7=
EXTT8=
EXTT9=
EXTT10=
EXTT11=
EXTT12=
PLAYORDER=
